# xmcd
#
# Track frame offsets:
#	150
#	20848
#	40176
#	54129
#	75090
#	97038
#	111588
#	135817
#	152415
#
# Disc length: 2358 seconds
#
# Revision: 1
# Processed by: cddbd v1.5.2PL0 Copyright (c) Steve Scherf et al.
# Submitted via: audiograbber 1.83.01
#
DISCID=5f093409
DTITLE=Brave the Day - Brave the Day
DYEAR=2004
DGENRE=Country
TTITLE0=Zippers
TTITLE1=Bad Idea
TTITLE2=Gone for Good
TTITLE3=In the Middle
TTITLE4=Barricade
TTITLE5=Trombones
TTITLE6=Fire Trucks
TTITLE7=Waiting Around
TTITLE8=Drunk by Noon
EXTD=
EXTT0=
EXTT1=
EXTT2=
EXTT3=
EXTT4=
EXTT5=
EXTT6=
EXTT7=
EXTT8=
PLAYORDER=
